<?xml version="1.0" encoding="UTF-8"?>
<svg id="Layer_1" data-name="Layer 1" xmlns="http://www.w3.org/2000/svg" viewBox="0 0 1618 684">
  <defs>
    <style>
      .cls-1 {
        fill: #fff;
      }
    </style>
  </defs>
  <path class="cls-1" d="M228.802,284.557c4.266,3.166,89.801-26.837,101.518-30.971,23.19-8.181,55.238-24.353,78.943-26.057,9.303-.669,21.039-1.484,26.389,7.688,10.146,17.395-11.463,25.475-23.492,31.209-41.548,19.807-122.582,46.977-167.869,50.131-3.812.265-20.694-.935-22.031.969-14.61,62.465-19.596,127.909-34.945,190.055-3.101,12.557-7.34,34.17-17.488,42.512-17.419,14.32-40.431,2.526-37.914-19.921,1.499-13.372,9.419-34.705,12.579-49.414,8.411-39.138,13.357-79.017,20.622-118.378,13.057-70.738,29.354-142.124,54.72-209.389l-.174-1.269c-2.849-1.127-6.816-4.162-5.781-7.536,3.107-4.908,5.546,3.125,8.954.933,5.686-15.804,27.557-43.088,37.453-14.564,8.654-3.297,17.255-6.952,25.995-10.006,33.478-11.698,71.302-25.806,105.303-34.697,7.867-2.057,23.167-6.39,30.729-6.292,10.104.131,16.159,11.556,9.924,19.945-3.139,4.223-14.29,8.274-19.469,10.531-48.966,21.34-101.343,32.755-153.514,43.486l-30.454,131.036Z"/>
  <path class="cls-1" d="M299.234,484.87c-13.977,1.817-29.002,5.511-43.027,2.304-4.132-.945-10.224-2.098-8.963-6.86,4.712-.819,9.161,2.634,13.524,2.771,11.317.357,29.127-9.38,38.496-15.057,3.828-13.443,6.504-27.139,11.704-40.368,18.501-47.066,70.184-91.11,121.753-107.763,45.559-14.712,64.887,17.854,48.376,54.111-18.348,40.291-75.269,73.949-117.181,91.88-3.181,1.361-17.893,5.948-18.519,7.729-1.578,9.47-1.608,35.019,11.571,37.468,16.597,3.084,37.462-9.971,49.746-18.953,20.439-14.943,38.185-33.562,56.594-50.494,13.426-7.704,27.658,4.024,19.751,17.088-5.482,9.057-20.992,25.365-28.844,33.861-20.529,22.214-46.15,47.83-77.979,55.611-48.934,11.961-78.467-21.367-77.001-63.33ZM453.244,337.226c-3.38-.003-6.703-.227-10.062.406-20.654,3.889-51.752,38.334-63.757,53.991-10.629,13.863-19.504,28.772-25.185,44.933.929.802,7.391-3.536,8.721-4.346,17.004-10.358,34.005-21.98,49.292-34.364,19.525-15.817,39.63-35.459,40.991-60.619Z"/>
  <path class="cls-1" d="M908.99,489.005l-25.017,35.468c-26.881,32.799-60.216,21.021-65.853-20.093-7.032-51.289,15.785-110.425,45.465-151.295,2.964-4.081,12.482-13.631,13.944-17.08.358-.845-3.505-6.703,2.998-7.99,9.005-1.783,14.11,3.754,13.467,12.467-.695,9.401-12.233,31.308-16.012,41.999-12.94,36.6-20.479,77.604-18.486,116.514,18.822-17.391,31.595-40.26,43.025-62.975,7.341-14.587,14.745-30.939,20.948-46.052,6.614-16.116,18.288-59.822,32.481-67.519,13.63-7.392,27.374,2.005,27.128,17.046-.174,10.676-9.104,25.849-12.539,36.543-10.574,32.921-16.385,77.831-18.528,112.472-.505,8.159-2.366,34.474.542,40.438.841,1.725,3.677,3.242,4.9,5.1,11.058,16.79-15.265,39.441-35.388,25.388-19.218-13.42-13.396-50.274-13.074-70.431Z"/>
  <path class="cls-1" d="M611.8,342.832c5.489-.85,10.301,2.315,13.734,6.729,17.007,21.872,11.815,102.896,12.838,133.172.202,5.978.353,12.019,1.145,17.969,12.799,2.556,18.346,11.575,15.417,24.963-3.809,17.405-14.988,37.636-34.635,34.475-33.062-5.318-25.543-69.709-27.165-94.854-9.121,15.233-15.998,32.049-25.452,47.079-10.902,17.333-25.661,39.303-48.342,35.565-42.273-6.968-23.35-93.929-13.041-121.712,13.098-35.3,40.342-68.21,71.715-86.687,9.977-5.876,32.35-16.378,33.787,3.3ZM536.528,492.157c23.322-24.647,39.156-54.526,48.449-88.103,3.813-13.778,5.92-28.529,9.708-42.377.49-1.79,4.197-11.234,3.738-11.65-42.792,31.464-61.403,88.213-61.895,142.131Z"/>
  <path class="cls-1" d="M1301.83,317.251c12.472-.285,21.158,8.269,21.943,20.564,2.187,34.261-54.617,91.996-80.301,112.158-9.968,7.825-20.16,14.298-32.014,18.986-1.057,26.647,5.875,43.048,34.899,30.899,17.727-7.42,29.799-20.895,44.937-29.063,16.522-8.914,32.006,8.501,21.703,23.703-27.204,40.136-95.379,82.934-132.812,30.818-31.577-43.962-9.367-116.486,23.789-153.842,19.932-22.457,67.369-53.525,97.856-54.223ZM1286,347.01c-1.825-1.529-17.74,10.517-20.014,12.476-23.675,20.394-43.218,50.842-49.976,81.509l22.507-24.977c17.255-21.94,35.371-43.618,47.483-69.007Z"/>
  <path class="cls-1" d="M698.95,400.622c-5.555-.624-18.139-4.916-22.032-8.968-6.292-6.55-5.869-17.223.631-23.432,7.741-7.395,35.848-6.755,46.811-8.692,2.528-14.277,8.062-27.774,11.806-41.691,8.339-30.998,14.275-60.209,25.265-90.735,5.851-16.251,16.618-46.51,25.825-60.175,7.382-10.955,21.764-5.188,21.202,8.16-.907,21.527-7.96,52.962-12.32,74.722-7.082,35.344-17.261,69.816-25.69,104.807,6.472.302,13.072-.378,19.543-.037,3.971.21,22.411,2.941,24.264,1.817.873-.53.36-3.483,3.531-2.656,11.64,8.477,9.304,16.1-2.651,22.065-16.797,8.382-36.168,11.341-53.766,17.48-7.792,35.855-17.373,72.127-23.444,108.311-3.2,19.072-.505,53.577-30.737,48.779-27.183-4.314-17.796-40.923-14.447-58.963,5.657-30.479,14.319-60.479,20.708-90.792-4.654-.371-9.942.512-14.5,0Z"/>
  <path class="cls-1" d="M1073.01,347.994l15.476-21.009c11.769-13.633,29.442-23.58,47.401-15.372,27.699,12.659,53.763,95.348,17.085,107.856-9.676,3.3-23.166-1.899-24.907-13.034-1.509-9.648.146-23.206-1.073-33.927-.676-5.946-1.615-13.208-4.492-18.488-2.973.077-26.009,38.176-29.301,43.679-19.158,32.024-48.215,81.326-58.662,116.338-4.324,14.491-1.457,40.837-22.007,42.013-28.861,1.651-21.127-36.553-18.24-54.26,4.785-29.35,15.286-55.429,23.425-83.575,8.053-27.849,12.887-58.927,22-86,12.315-36.583,41.396-13.379,33.293,15.778Z"/>
  <path class="cls-1" d="M1351.357,459.357c10.1-10.021,26.597-5.848,31.93,6.855,5.115,12.184,6.758,26.676,12.539,39.461,2.732,6.041,6.589,16.57,11.686,5.339,6.101-13.443,1.247-50.028-1.826-65.198-6.668-32.914-22.783-63.96-10.725-98.353,18.311-52.228,76.583-35.849,103.458-.38,5.51,7.273,21.759,29.443,1.596,26.395-15.405-13.525-36.65-31.034-58.537-28.499-3.544.411-5.742,1.644-6.818,5.183-6.31,20.758,6.682,50.277,12.055,70.624,11.025,41.745,25.632,127.269-31.933,141.499-50.358,12.448-66.587-39.384-68.773-78.792-.489-8.825-1.319-17.519,5.348-24.133Z"/>
</svg>