<?xml version="1.0" encoding="UTF-8"?>
<svg id="Glyph" xmlns="http://www.w3.org/2000/svg" viewBox="0 0 64 64">
  <defs>
    <style>
      .cls-1 {
        fill: #231f20;
      }

      .cls-2 {
        fill: #515151;
      }

      .cls-3 {
        fill: #666;
      }
    </style>
  </defs>
  <path class="cls-2" d="M6.872,26.541c-.005,1.037.529,2.003,1.41,2.55l18.13,11.29c.971.6,2.686.387,3.658-.213l22.653-15.813c1.406-.898,1.329-2.552.431-3.958-.236-.369-.55-.683-.919-.919l-18-11.28c-.967-.613-2.199-.617-3.17-.01l-22.773,15.813c-.884.541-1.423,1.504-1.42,2.54Z"/>
  <path class="cls-1" d="M52.582,30.325l-2.77-1.74s-17.916,12.722-19.18,13.496c-1.619.996-3.661.996-5.28,0-1.299-.807-14.27-8.89-14.27-8.89l-2.79,1.72c-1.41.895-1.827,2.764-.932,4.174.236.372.551.688.922.926l18.13,11.29c.971.6,2.199.6,3.17,0l23-15.886c1.406-.9,1.816-2.768.916-4.174-.236-.368-.548-.681-.916-.916Z"/>
  <path class="cls-3" d="M7.122,25.344c-.005,1.037,2.084,1.947,2.965,2.494l16.475,10.272c.971.6,2.199.6,3.17,0l20.848-14.559c1.406-.898,3.083-2.235,2.185-3.641-.236-.369-1.816-1.213-2.185-1.449l-16.345-10.262c-.967-.613-2.199-.617-3.17-.01l-22.504,15.626c-.268.186-1.016.553-1.438,1.529Z"/>
</svg>